<svg width="20" height="20" viewBox="0 0 20 20" fill="none" xmlns="http://www.w3.org/2000/svg">
<g clip-path="url(#clip0_105_8)">
<path d="M19.9998 10.0044C19.9428 5.84243 17.3952 2.11559 13.4968 0.628137C9.56757 -0.869598 4.93432 0.381772 2.27727 3.62875C-0.36692 6.86236 -0.767508 11.5212 1.3861 15.1266C3.5356 18.7244 7.74924 20.5786 11.8533 19.8395C16.5329 18.9975 19.8826 14.7928 19.9962 10.1114C19.9993 10.0758 20.0005 10.0401 19.9998 10.0044ZM2.9576 5.8018C4.69109 2.902 8.16062 1.30757 11.4913 1.94688C15.0601 2.63043 17.6842 5.57138 18.1162 9.0961H13.2094C12.7846 7.68889 11.5638 6.62731 9.98924 6.62731C8.46453 6.62731 7.15324 7.6894 6.74391 9.0961H1.86177C1.98552 7.93187 2.35933 6.80813 2.9576 5.8018ZM11.5494 10.0049C11.4466 11.998 8.42957 12.0314 8.42957 10.0049C8.42957 7.97846 11.4486 8.01086 11.5494 10.0049ZM12.7836 17.7091C9.52951 18.8761 5.83474 17.8557 3.63896 15.1853C2.64434 13.9652 2.02661 12.4818 1.86126 10.9163H6.73979C7.14655 12.3251 8.47276 13.3851 9.98924 13.3851C11.5664 13.3851 12.7846 12.3215 13.2094 10.9163H18.1177C17.7449 13.9601 15.7353 16.6511 12.7836 17.7091Z" fill="#F6FAFF"/>
</g>
<defs>
<clipPath id="clip0_105_8">
<rect width="20" height="20" fill="white"/>
</clipPath>
</defs>
</svg>
